<svg xmlns="http://www.w3.org/2000/svg" viewBox="0 0 179.476 38">
  <defs>
    <style>
      .a {
        fill: #00a26a;
      }

      .b {
        fill: #fff;
      }

      .c {
        fill: #666464;
      }
    </style>
  </defs>
  <g>
    <g>
      <g>
        <path class="a" d="M25.315,9.378s8.547-4.421,13.6-4.421c2.176,0,2.61,1.016,2.61,2.056a7.972,7.972,0,0,1-.744,2.933,13.031,13.031,0,0,1,6.691-1.338c1.507.178,1.885.9,1.885,1.832,0,4.837-7.178,11.326-7.178,11.326a21.964,21.964,0,0,0,1.314-6.081,1.635,1.635,0,0,0-1.8-1.83c-3.719,0-8.471,3.344-8.471,3.344s2.526-3.88,2.526-6.672c0-.937-.241-1.962-3.636-1.962A39.328,39.328,0,0,0,25.315,9.378Z"/>
        <path class="a" d="M41.656,20.321a17.741,17.741,0,0,0-6.7,1.427,12.066,12.066,0,0,0,.644-3.475c0-1.07-.752-2.375-2.991-2.3-7.346.23-14.758,4.955-14.758,4.955a52.507,52.507,0,0,1,8.113-1.042c2.9,0,3.213,1.316,3.213,2.281,0,2.872-2.978,6.94-2.978,6.94s4.52-2.726,8.756-2.726c1.64,0,1.457.928,1.457,2.519A47.678,47.678,0,0,1,35.562,38s10.462-9.453,10.462-14.809C46.024,22,45.137,20.321,41.656,20.321Z"/>
      </g>
      <rect class="a" width="46.892" height="34.437"/>
      <g>
        <path class="b" d="M16,18.486s7.466-4.008,14.758-4.272c3.77-.136,1.7,5.018,1.7,5.018A19.226,19.226,0,0,1,40.07,18.1c10.149,1.128-5.937,18.629-5.937,18.629s3.747-10.45-.366-11.168c-3.471-.606-9.153,2.23-9.153,2.23s1.975-4.247,1.68-7C25.871,16.86,16,18.486,16,18.486Z"/>
        <path class="b" d="M23.463,7.3s8.344-4.084,13.289-4.08c3.948,0,2.174,4.972,2.174,4.972a13.688,13.688,0,0,1,6.69-1.338c5.022.508-.534,10.187-5.292,13.158,0,0,2.083-6.651-.819-7.352-3.383-.818-8.957,2.494-8.957,2.494s3.636-6.269.968-7.737C29.369,6.237,23.463,7.3,23.463,7.3Z"/>
      </g>
    </g>
    <g>
      <rect class="c" x="59.973" y="7.122" width="19.254" height="2.834"/>
      <polygon class="c" points="91.453 27.998 91.453 17.951 82.147 17.951 82.147 15.221 91.453 15.221 91.453 7.106 94.151 7.106 94.151 15.221 103.508 15.221 103.508 17.951 94.151 17.951 94.151 27.998 91.453 27.998"/>
      <rect class="c" x="58.945" y="25.111" width="21.31" height="2.834"/>
      <rect class="c" x="106.81" y="7.122" width="19.254" height="2.834"/>
      <rect class="c" x="105.782" y="25.111" width="21.31" height="2.834"/>
      <rect class="c" x="61.22" y="15.273" width="16.76" height="2.807"/>
      <rect class="c" x="108.057" y="15.273" width="16.76" height="2.807"/>
      <g>
        <path class="c" d="M164.034,6.485l-2.088-.826a11.837,11.837,0,0,1-5.176,5.177l1.012,2.314A13.019,13.019,0,0,0,164.034,6.485Z"/>
        <path class="c" d="M162.208,11.225a14.78,14.78,0,0,1-5.405,6.01l.944,2.253a9.412,9.412,0,0,0,1.659-1.153V28.371h2.766V15.976a16.943,16.943,0,0,0,2.186-3.793Z"/>
        <path class="c" d="M164.668,13.15v2.714h8.556v9.53a.37.37,0,0,1-.369.37h-4.7v2.6h5.161a2.676,2.676,0,0,0,2.676-2.676V15.864h3.486V13.15Z"/>
        <rect class="c" x="165.443" y="6.435" width="13.256" height="2.714"/>
      </g>
      <g>
        <polygon class="c" points="133.986 24.338 131.878 24.338 131.27 19.728 133.019 19.728 133.986 24.338"/>
        <polygon class="c" points="138.569 19.728 140.52 19.728 139.663 23.823 138.103 23.823 138.569 19.728"/>
        <path class="c" d="M137.45,14.21h1.99V12.02c.072.075.143.124.361.317l1.523-2.067a14.26,14.26,0,0,1-3.745-4.476h-2.657a18.222,18.222,0,0,1-4.349,5.448l.845,2.481a13.109,13.109,0,0,0,1.257-1.1V14.21h2.009v2.116h-3.8v2.309h3.8v6.709c-1.278.126-2.542.219-3.661.242V28.27c4.809-.261,7.774-1,9.617-1.808V24.334a29.189,29.189,0,0,1-3.19.655V18.635h3.39V16.326h-3.39Zm-4.074-2.285a20.254,20.254,0,0,0,2.875-3.6,17.788,17.788,0,0,0,3.069,3.6Z"/>
        <path class="c" d="M149.938,22.586a18.172,18.172,0,0,0,3.512-2.735l-1.473-1.884a20,20,0,0,1-3.191,2.475,10.89,10.89,0,0,1-.771-3h4.843V6.4h-11.4V27.9a21.93,21.93,0,0,0,5.664-1.434V24.334a26.88,26.88,0,0,1-2.9.614v-7.5h1.2a15.98,15.98,0,0,0,6.554,11.334l1.885-1.97A15.866,15.866,0,0,1,149.938,22.586ZM144.222,8.592h5.87v2.335h-5.87Zm0,6.665V12.9h5.87v2.361Z"/>
      </g>
    </g>
  </g>
</svg>
